# xmcd
#
# Track frame offsets: 
#        150
#        13176
#        24905
#        35309
#        46150
#        57516
#        69539
#        81700
#        92200
#        102833
#        114595
#        124448
#        135629
#        145581
#        156791
#        169574
#        181687
#        195226
#        207458
#        218760
#        228090
#        238394
#        251430
#        263748
#        272480
#
# Disc length: 3804 seconds
#
# Revision: 2
# Processed by: cddbd v1.5.2PL0 Copyright (c) Steve Scherf et al.
# Submitted via: ExactAudioCopyFreeDBPlugin 1.0
#
DISCID=5b0eda19
DTITLE=Various Artist - Soul Sixties [Real Gone Music]
DYEAR=2015
DGENRE=Soul
TTITLE0=The Temptations - (You're My) Dream Come True
TTITLE1=Carla Thomas - I Can't Take It
TTITLE2=The Chanters - My Rose
TTITLE3=Dee Dee Sharp - Ride
TTITLE4=The Isley Brothers - Twist and Shout
TTITLE5=Jr. Walker and The All Stars - Cleo's Mood
TTITLE6=Dionne Warwick - Don't Make Me Over
TTITLE7=Baby Washington - A Handful of Memories
TTITLE8=Claudine Clark - Party Lights
TTITLE9=Sam Cooke - Nothing Can Change This Love
TTITLE10=The Sherrys - Your Hand in Mine
TTITLE11=The Elgins - A Winner Never Quits
TTITLE12=The Untouchables - Papa
TTITLE13=The Nuggets - Cap Snapper
TTITLE14=Baby Washington - I've Got a Feeling
TTITLE15=Mary Wells - You Beat Me to the Punch
TTITLE16=Jackie Wilson - I Just Can't Help It
TTITLE17=Timi Yuro - What's a Matter Baby (Is It Hurting You)
TTITLE18=Marvin Gaye - Hitch Hike
TTITLE19=Les Cooper and The Soul Rockers - Wiggle Wobble
TTITLE20=Jerry McCain - Red Top
TTITLE21=Irma Thomas - I Done Got Over It
TTITLE22=Arthur Alexander - Where Have You Been (All My Life)
TTITLE23=Cicero Blake - Don't Do This to Me
TTITLE24=Booker T. and The M.G.'s  - Green Onions
EXTD=
EXTT0=
EXTT1=
EXTT2=
EXTT3=
EXTT4=
EXTT5=
EXTT6=
EXTT7=
EXTT8=
EXTT9=
EXTT10=
EXTT11=
EXTT12=
EXTT13=
EXTT14=
EXTT15=
EXTT16=
EXTT17=
EXTT18=
EXTT19=
EXTT20=
EXTT21=
EXTT22=
EXTT23=
EXTT24=
PLAYORDER=
